<?xml version="1.0" encoding="utf-8"?>
<!-- Generator: Adobe Illustrator 15.0.0, SVG Export Plug-In . SVG Version: 6.00 Build 0)  -->

<svg version="1.1" id="Layer_1" xmlns="http://www.w3.org/2000/svg" xmlns:xlink="http://www.w3.org/1999/xlink" x="0px" y="0px"
	 width="24px" height="24px" viewBox="0 0 24 24" enable-background="new 0 0 24 24" xml:space="preserve">
<path fill="#AD7F34" d="M4,1h15.1C19.5,1,20,1.5,20,1.8V7l-1,2v10.7c0,0.3-0.5,0.3-0.9,0.3H3.5C3.2,20,3,20,3,19.7V1.8
	C3,1.5,3.2,1,3.5,1"/>
<path fill="#AD7F34" d="M4,1h15.1C19.5,1,20,1.5,20,1.8V7l-1,2v9.7c0,0.3-0.5,0.3-0.9,0.3H3.5C3.2,19,3,19,3,18.7V1.8
	C3,1.5,3.2,1,3.5,1 M3.7,0C2.7,0,2,0.8,2,1.8v16.8c0,1,0.5,2.3,1.5,2.3h14.6c1,0,1.9-1.3,1.9-2.3V9l1-2V1.8c0-1-0.8-1.8-1.9-1.8H3.5
	H3.7z"/>
<g>
	<path fill="#E0A946" d="M2,19.7c0,1,0.8,1.9,1.7,2.2l9.4,2.2c0.9,0,0.9-0.8,0.9-1.8V4.3c0-1,0.2-1.7-0.9-2.2L3.8,0C2.9,0,2,0,2,0
		V19.7z"/>
</g>
</svg>
