<?xml version="1.0" encoding="utf-8"?>
<!-- Generator: Adobe Illustrator 15.0.0, SVG Export Plug-In . SVG Version: 6.00 Build 0)  -->

<svg version="1.1" id="Layer_1" xmlns="http://www.w3.org/2000/svg" xmlns:xlink="http://www.w3.org/1999/xlink" x="0px" y="0px"
	 width="24px" height="24px" viewBox="0 0 24 24" enable-background="new 0 0 24 24" xml:space="preserve">
<g>
	<g>
		<g>
			<path fill="#2980B9" d="M1,2v20h22V2H1z M22,21H2V5h20V21z"/>
		</g>
	</g>
	<rect x="18.2" y="3" fill="#FFFFFF" width="0.8" height="0.8"/>
	<rect x="20" y="3" fill="#FFFFFF" width="0.8" height="0.8"/>
	<rect x="2" y="5" fill="#2980B9" width="20" height="16"/>
</g>
<rect x="2" y="5" fill="#FFFFFF" width="20" height="4"/>
<rect x="2" y="10" opacity="0.6" fill="#FFFFFF" width="6" height="11"/>
<rect x="9" y="10" opacity="0.9" fill="#FFFFFF" width="13" height="11"/>
<rect x="4" y="6" fill="#2980B9" width="3" height="2"/>
<g opacity="0.6">
	<rect x="3" y="12" fill="#2980B9" width="4" height="1"/>
	<rect x="3" y="14" fill="#2980B9" width="4" height="1"/>
	<rect x="3" y="16" fill="#2980B9" width="4" height="1"/>
	<rect x="3" y="18" fill="#2980B9" width="4" height="1"/>
</g>
</svg>
